Coordinates
version=1
nRows=17
nColumns=33
inDegrees=yes

Units are S.I. units (second, meters, Newtons, ...)
Angles are in degrees.

endheader
time	ground_thorax_rot_x	ground_thorax_rot_y	ground_thorax_rot_z	ground_thorax_tx	ground_thorax_ty	ground_thorax_tz	clav_prot_r	clav_elev_r	scapula_abduction_r	scapula_elevation_r	scapula_upward_rot_r	scapula_winging_r	shoulder_elv_r	plane_of_elev_r	axial_rot_r	elbow_flexion_r	pro_sup_r	wrist_flex_r	wrist_dev_r	clav_prot_l	clav_elev_l	scapula_abduction_l	scapula_elevation_l	scapula_upward_rot_l	scapula_winging_l	shoulder_elv_l	plane_of_elev_l	axial_rot_l	elbow_flexion_l	pro_sup_l	wrist_flex_l	wrist_dev_l	
10.0300	38.392310	12.419060	16.525295	-132.988970	793.127557	6.097706	14.115040	41.465799	44.959126	42.045644	-18.369629	-2610.731414	-1379.289084	31.080012	52.091817	1812.603529	392.142167	19.196471	8.119664	-6.156404	-45.000000	-45.000000	45.000000	23.536427	2273.035698	-4599.896341	13.087070	180.000000	1087.011703	-141.093172	8.717250	-15.635458	
10.0400	38.537227	12.484170	16.500687	-135.065693	794.210578	6.010728	14.204986	41.634716	44.925921	42.334649	-18.705309	-2610.714907	-1379.178437	31.154433	51.728294	1812.646992	392.051071	19.214816	8.040342	-6.146532	-45.000000	-45.000000	45.000000	23.766760	2273.221008	-4599.694541	13.103004	180.000000	1087.025228	-141.235387	8.803565	-15.719921	
10.0500	38.680901	12.563226	16.489986	-137.155653	795.296306	5.924662	14.309565	41.811798	44.869710	42.632996	-19.086670	-2610.682857	-1379.066641	31.248073	51.351868	1812.684411	391.913021	19.229770	7.966092	-6.125332	-45.000000	-45.000000	45.000000	23.975395	2273.406151	-4599.492619	13.124070	180.000000	1087.050914	-141.386043	8.889080	-15.794929	
10.0600	38.822471	12.666378	16.501992	-139.257203	796.382937	5.839152	14.425571	41.988919	44.762114	42.949166	-19.520163	-2610.611392	-1378.950884	31.365579	50.951471	1812.713715	391.727653	19.241127	7.896155	-6.090885	-45.000000	-45.000000	45.000000	24.153960	2273.590104	-4599.289156	13.146345	180.000000	1087.088156	-141.546556	8.973010	-15.859659	
10.0700	38.958353	12.780588	16.522810	-141.368670	797.469030	5.754002	14.528911	42.164624	44.605722	43.266030	-19.954883	-2610.507435	-1378.824512	31.489105	50.536545	1812.738263	391.506004	19.253499	7.837218	-6.042754	-45.000000	-44.999999	45.000000	24.289471	2273.753911	-4599.087025	13.164375	180.000000	1087.124623	-141.716748	9.057798	-15.922435	
10.0800	39.088394	12.908964	16.553162	-143.487660	798.553238	5.669347	14.621564	42.333723	44.399555	43.584702	-20.393165	-2610.373355	-1378.691681	31.621498	50.111718	1812.756205	391.258256	19.266115	7.786730	-5.979017	-45.000000	-44.999999	45.000000	24.376309	2273.897370	-4598.889676	13.178732	180.000000	1087.155612	-141.896150	9.142641	-15.984238	
10.0900	39.212190	13.032366	16.576349	-145.611285	799.634466	5.585710	14.685710	42.493643	44.171241	43.886149	-20.794056	-2610.230623	-1378.546917	31.743528	49.691462	1812.773023	391.001168	19.282707	7.746790	-5.902238	-45.000000	-44.999998	45.000000	24.411990	2274.006936	-4598.698305	13.186738	180.000000	1087.174206	-142.082817	9.229436	-16.050732	
10.1000	39.327977	13.159437	16.601148	-147.736096	800.711712	5.504009	14.735351	42.632414	43.922138	44.174935	-21.191388	-2610.077435	-1378.392053	31.865267	49.270617	1812.787951	390.743095	19.300428	7.707402	-5.812918	-45.000000	-44.999996	45.000000	24.404023	2274.094478	-4598.510001	13.194370	180.000000	1087.184446	-142.275794	9.316034	-16.117594	
10.1100	39.432281	13.267968	16.609345	-149.858553	801.784199	5.425458	14.751445	42.738821	43.686211	44.425215	-21.542021	-2609.941122	-1378.221923	31.966800	48.859825	1812.803594	390.498411	19.321877	7.669532	-5.712957	-45.000000	-44.999993	45.000000	24.348705	2274.146742	-4598.325433	13.200391	180.000000	1087.171234	-142.474575	9.404254	-16.192883	
10.1200	39.520834	13.368951	16.612178	-151.975328	802.851294	5.351464	14.758148	42.803793	43.463978	44.635182	-21.893551	-2609.826197	-1378.036180	32.069669	48.454780	1812.818889	390.270772	19.342078	7.620061	-5.601789	-45.000000	-44.999988	45.000000	24.256914	2274.180977	-4598.141331	13.216414	180.000000	1087.146228	-142.679027	9.491704	-16.268620	
10.1300	39.592675	13.451127	16.600977	-154.083408	803.912500	5.283450	14.744737	42.822766	43.266576	44.791608	-22.217932	-2609.744421	-1377.833417	32.165200	48.065811	1812.833832	390.066108	19.361757	7.559977	-5.478761	-45.000000	-44.999978	45.000000	24.123584	2274.190131	-4597.958093	13.241536	180.000000	1087.103870	-142.890677	9.579739	-16.348538	
10.1400	39.644355	13.532170	16.593211	-156.180613	804.967666	5.222783	14.725602	42.797222	43.074825	44.903400	-22.547861	-2609.682408	-1377.615904	32.266985	47.695453	1812.847491	389.882255	19.377861	7.484908	-5.341745	-45.000000	-44.999960	45.000000	23.954082	2274.186186	-4597.768642	13.280873	180.000000	1087.058412	-143.111631	9.665716	-16.424487	
10.1500	39.679871	13.601206	16.578584	-158.265537	806.017051	5.170599	14.684592	42.739803	42.899395	44.967604	-22.837741	-2609.651564	-1377.390514	32.358473	47.362960	1812.858112	389.722357	19.392722	7.405795	-5.190326	-45.000000	-44.999929	45.000000	23.741780	2274.159492	-4597.576055	13.325778	180.000000	1086.999297	-143.345173	9.750942	-16.502845	
10.1600	39.701304	13.665863	16.562719	-160.337415	807.061403	5.127977	14.626755	42.657732	42.735490	44.993745	-23.093738	-2609.646768	-1377.160230	32.438285	47.080820	1812.868780	389.583727	19.406943	7.325591	-5.026538	-45.000000	-44.999872	45.000000	23.494518	2274.112751	-4597.376744	13.373191	180.000000	1086.937996	-143.593491	9.834292	-16.578681	
10.1700	39.717257	13.721618	16.543144	-162.396032	808.101959	5.095562	14.555797	42.566280	42.585912	45.000000	-23.310193	-2609.666619	-1376.938841	32.504684	46.851179	1812.877074	389.462313	19.420829	7.249459	-4.854232	-45.000000	-44.999771	45.000000	23.222747	2274.054354	-4597.175022	13.417460	180.000000	1086.869565	-143.859220	9.915976	-16.653844	
10.1800	39.730344	13.774659	16.523947	-164.441218	809.140214	5.073477	14.477849	42.472451	42.446488	45.000000	-23.506537	-2609.701308	-1376.727594	32.559221	46.666355	1812.885710	389.351801	19.434567	7.178449	-4.676818	-45.000000	-44.999591	45.000000	22.938266	2273.989453	-4596.969739	13.458465	180.000000	1086.803784	-144.142041	9.995462	-16.724237	
10.1900	39.745424	13.821453	16.503249	-166.472851	810.177680	5.060595	14.395274	42.379893	42.314991	45.000000	-23.685129	-2609.748092	-1376.524603	32.605690	46.511556	1812.895237	389.246859	19.448620	7.113945	-4.498157	-45.000000	-44.999267	45.000000	22.649987	2273.922593	-4596.763600	13.492705	180.000000	1086.738082	-144.441232	10.073435	-16.791243	
